<svg width="52" height="52" viewBox="0 0 52 52" fill="none" xmlns="http://www.w3.org/2000/svg">
<path fill-rule="evenodd" clip-rule="evenodd" d="M26 51.3857C40.0833 51.3857 51.5 39.969 51.5 25.8857C51.5 11.8025 40.0833 0.385742 26 0.385742C11.9167 0.385742 0.5 11.8025 0.5 25.8857C0.5 39.969 11.9167 51.3857 26 51.3857ZM29.283 31.332L30.1136 14.235L25.0467 30.585L26.1399 36.7708L29.283 31.332ZM10.4783 24.777C10.4783 16.2046 17.4276 9.25531 26 9.25531C34.5724 9.25531 41.5217 16.2046 41.5217 24.777H42.6304H43.7391C43.7391 14.98 35.7971 7.03792 26 7.03792C16.2029 7.03792 8.26087 14.98 8.26087 24.777H9.36957H10.4783Z" fill="#19191B"/>
</svg>
